<?xml version="1.0" encoding="utf-8"?>
<!-- Generator: Adobe Illustrator 23.0.1, SVG Export Plug-In . SVG Version: 6.00 Build 0)  -->
<svg version="1.1" id="Layer_1" xmlns="http://www.w3.org/2000/svg" xmlns:xlink="http://www.w3.org/1999/xlink" x="0px" y="0px"
	 viewBox="0 0 46 74.81" style="enable-background:new 0 0 46 74.81;" xml:space="preserve">
<style type="text/css">
	.st0{fill:#FC8462;}
	.st1{fill:#FD8561;}
	.st2{fill:#FC4942;}
	.st3{fill:#FC473E;}
	.st4{fill:#FC463E;}
</style>
<g>
	<path class="st0" d="M45.98,66.45c0,1.53,0.01,3.05,0.01,4.58c-9.9-0.57-19.04-3.39-27.18-9.17c-17.1-12.16-18.53-32.5-2.96-46.41
		C24.31,7.89,34.53,4.28,45.93,4.18C45.96,5.7,46,7.23,46.04,8.75c-2.63-0.19-5.21,0.1-7.76,0.78
		c-10.18,2.74-19.06,7.39-24.33,17.06c-2.92,5.35-2.22,6.75,3.65,8.4c0,1.7,0,3.41,0,5.11c-5.14,0.7-6.21,2.63-3.98,7.2
		c1.09,2.23,2.31,4.32,4.03,6.2C25.27,61.88,35.07,65.35,45.98,66.45z"/>
	<path class="st1" d="M17.59,40.11c0-1.7,0-3.41,0-5.11c5.05-0.3,10.14,0.48,15.18-0.66c1.56-0.36,3.04-0.67,3.4-2.33
		c0.4-1.85-1.29-2.39-2.49-3.24c-1.63-1.16-4.26-0.96-4.87-3.52c0.88-0.19,2.11,0.49,2.55-0.67c0.14-0.36-0.7-1.1-1.09-1.67
		c1.38-2.07,3.3-3.16,5.73-3.84c3.36-0.94,6.7-0.4,10.05-0.58C46.04,31,46.02,43.51,46,56.03c-4.77,1.02-9.39,1.13-13.45-2.19
		c-0.08-0.94-0.12-1.93-1.43-0.9c-3.18-3.79-3.08-4.28,1.31-6.21c1.89-0.83,4.46-1.25,3.77-4.12c-0.65-2.69-3.13-2.34-5.22-2.36
		C26.51,40.19,22.05,40.15,17.59,40.11z"/>
	<path class="st2" d="M45.93,4.18c-11.39,0.1-21.62,3.71-30.08,11.27C0.28,29.35,1.71,49.69,18.81,61.85
		c8.14,5.79,17.28,8.6,27.18,9.17c0.74,2.87-0.01,4.11-3.3,3.71c-11.56-1.43-22.15-5.12-30.95-12.98
		C-4.38,47.35-3.83,25.68,12.93,12.01c8.91-7.27,19.3-10.77,30.6-11.96C47.66-0.39,45.86,2.38,45.93,4.18z"/>
	<path class="st3" d="M46.06,18.49c-3.35,0.17-6.69-0.36-10.05,0.58c-2.44,0.68-4.35,1.77-5.73,3.84c-0.91,0.52-1.46,1.26-1.47,2.34
		c0.61,2.56,3.24,2.36,4.87,3.52c1.2,0.86,2.89,1.39,2.49,3.24c-0.36,1.66-1.83,1.98-3.4,2.33C27.73,35.48,22.65,34.7,17.59,35
		c-5.87-1.65-6.57-3.05-3.65-8.4c5.27-9.67,14.15-14.32,24.33-17.06c2.55-0.69,5.13-0.97,7.76-0.78
		C46.04,12,46.05,15.24,46.06,18.49z"/>
	<path class="st4" d="M17.59,40.11c4.46,0.04,8.92,0.08,13.38,0.13c2.09,0.03,4.58-0.33,5.22,2.36c0.69,2.87-1.88,3.29-3.77,4.12
		c-4.39,1.93-4.49,2.42-1.31,6.21c0.28,0.62,0.83,0.8,1.43,0.9c4.06,3.32,8.68,3.21,13.45,2.19c-0.01,3.47-0.02,6.95-0.02,10.42
		c-10.91-1.1-20.71-4.57-28.34-12.94c-1.71-1.88-2.94-3.97-4.03-6.2C11.38,42.74,12.45,40.81,17.59,40.11z"/>
	<path class="st0" d="M28.81,25.24c0.01-1.08,0.56-1.82,1.47-2.34c0.39,0.57,1.23,1.31,1.09,1.67
		C30.92,25.74,29.69,25.05,28.81,25.24z"/>
	<path class="st0" d="M32.55,53.84c-0.6-0.11-1.16-0.28-1.43-0.9C32.43,51.91,32.47,52.9,32.55,53.84z"/>
</g>
</svg>
